<svg width="50" height="46" viewBox="0 0 50 46" fill="none" xmlns="http://www.w3.org/2000/svg">
<path opacity="0.2" d="M25 45.875L21.375 42.625C17.1667 38.8333 13.6875 35.5625 10.9375 32.8125C8.1875 30.0625 6 27.5938 4.375 25.4062C2.75 23.2188 1.61458 21.2083 0.96875 19.375C0.322917 17.5417 0 15.6667 0 13.75C0 9.83333 1.3125 6.5625 3.9375 3.9375C6.5625 1.3125 9.83333 0 13.75 0C15.9167 0 17.9792 0.458333 19.9375 1.375C21.8958 2.29167 23.5833 3.58333 25 5.25C26.4167 3.58333 28.1042 2.29167 30.0625 1.375C32.0208 0.458333 34.0833 0 36.25 0C40.1667 0 43.4375 1.3125 46.0625 3.9375C48.6875 6.5625 50 9.83333 50 13.75C50 15.6667 49.6771 17.5417 49.0312 19.375C48.3854 21.2083 47.25 23.2188 45.625 25.4062C44 27.5938 41.8125 30.0625 39.0625 32.8125C36.3125 35.5625 32.8333 38.8333 28.625 42.625L25 45.875ZM25 39.125C29 35.5417 32.2917 32.4688 34.875 29.9062C37.4583 27.3438 39.5 25.1146 41 23.2188C42.5 21.3229 43.5417 19.6354 44.125 18.1562C44.7083 16.6771 45 15.2083 45 13.75C45 11.25 44.1667 9.16667 42.5 7.5C40.8333 5.83333 38.75 5 36.25 5C34.2917 5 32.4792 5.55208 30.8125 6.65625C29.1458 7.76042 28 9.16667 27.375 10.875H22.625C22 9.16667 20.8542 7.76042 19.1875 6.65625C17.5208 5.55208 15.7083 5 13.75 5C11.25 5 9.16667 5.83333 7.5 7.5C5.83333 9.16667 5 11.25 5 13.75C5 15.2083 5.29167 16.6771 5.875 18.1562C6.45833 19.6354 7.5 21.3229 9 23.2188C10.5 25.1146 12.5417 27.3438 15.125 29.9062C17.7083 32.4688 21 35.5417 25 39.125Z" fill="#994CE6"/>
</svg>
